<?xml version="1.0" encoding="utf-8"?>
<!-- Generator: Adobe Illustrator 16.0.0, SVG Export Plug-In . SVG Version: 6.00 Build 0)  -->
<!DOCTYPE svg PUBLIC "-//W3C//DTD SVG 1.1//EN" "http://www.w3.org/Graphics/SVG/1.1/DTD/svg11.dtd">
<svg version="1.1" id="Layer_1" xmlns="http://www.w3.org/2000/svg" xmlns:xlink="http://www.w3.org/1999/xlink" x="0px" y="0px"
	 width="1080px" height="1080px" viewBox="0 0 1080 1080" enable-background="new 0 0 1080 1080" xml:space="preserve">
<g>
	
		<linearGradient id="SVGID_1_" gradientUnits="userSpaceOnUse" x1="-191.7646" y1="465.4741" x2="751.9043" y2="465.4741" gradientTransform="matrix(-0.887 -0.4592 0.4531 -0.8859 584.2466 1068.5742)">
		<stop  offset="0" style="stop-color:#67308F"/>
		<stop  offset="1" style="stop-color:#29ABE2"/>
	</linearGradient>
	<path opacity="0.3109" fill="url(#SVGID_1_)" d="M946.151,711.745c47.014-38.156,89.857-86.063,103.9-145.12
		c30.188-126.955-81.309-244.938-207.217-215.16c-42.541,10.063-85.852,26.281-128.813,17.624
		c-42.082-8.485-75.635-39.235-108.653-66.833c-56.143-46.935-118.64-88.747-189.248-107.379
		c-156.1-41.187-312.683,60.295-316.554,226.712c-2.237,96.177,48.996,185.008,107.309,258.036
		c80.164,100.398,193.695,164.275,321.7,175.594C676.991,868.341,832.589,803.919,946.151,711.745z"/>
	
		<linearGradient id="SVGID_2_" gradientUnits="userSpaceOnUse" x1="-222.248" y1="424.6665" x2="711.9971" y2="424.6665" gradientTransform="matrix(-0.887 -0.4592 0.4531 -0.8859 584.2466 1068.5742)">
		<stop  offset="0" style="stop-color:#67308F"/>
		<stop  offset="1" style="stop-color:#29ABE2"/>
	</linearGradient>
	<path fill="url(#SVGID_2_)" d="M969.822,649.918c1.484,0.079,2.97,0.153,4.459,0.224c19.174,0.901,38.913,1.037,56.891-5.691
		c73.104-27.355,37.88-134.529,3.002-178.708c-41.055-52.006-108.602-77.106-173.421-61.771
		c-42.541,10.058-85.857,26.276-128.813,17.619c-42.078-8.485-75.634-39.235-108.653-66.832
		c-56.144-46.935-118.64-88.743-189.25-107.375c-156.097-41.191-312.681,60.29-316.552,226.712
		c-2.237,96.172,48.997,185.003,107.309,258.036C270,788.753,387.01,908.112,469.646,870.409
		c28.359-12.934,48.523-38.809,65.277-65.094c24.094-37.793,43.683-78.549,70.958-114.113s64.217-66.458,108.351-74.267
		c39.075-6.91,78.679,4.857,117.362,13.701C877.003,641.018,923.307,647.476,969.822,649.918z"/>
	<linearGradient id="SVGID_3_" gradientUnits="userSpaceOnUse" x1="122.5562" y1="485.2607" x2="1079.1035" y2="485.2607">
		<stop  offset="0" style="stop-color:#67308F"/>
		<stop  offset="1" style="stop-color:#29ABE2"/>
	</linearGradient>
	<path opacity="0.3712" fill="none" stroke="url(#SVGID_3_)" stroke-miterlimit="10" d="M969.709,675.694
		c47.015-38.16,89.859-86.062,103.905-145.119c30.185-126.955-81.308-244.943-207.221-215.16
		c-42.541,10.063-85.857,26.276-128.809,17.619c-42.083-8.48-75.639-39.23-108.653-66.832
		c-56.148-46.935-118.643-88.742-189.252-107.375c-156.098-41.191-312.681,60.29-316.552,226.712
		c-2.237,96.172,48.995,185.003,107.309,258.037c80.162,100.396,193.693,164.27,321.699,175.588
		C700.551,832.286,856.148,767.864,969.709,675.694z"/>
	<g opacity="0.5013">
		
			<linearGradient id="SVGID_4_" gradientUnits="userSpaceOnUse" x1="898.1875" y1="867.6133" x2="204.2493" y2="215.5381" gradientTransform="matrix(0.9984 -0.0559 0.0559 0.9984 -85.2642 58.8291)">
			<stop  offset="0" style="stop-color:#67308F"/>
			<stop  offset="1" style="stop-color:#29ABE2"/>
		</linearGradient>
		<path fill="url(#SVGID_4_)" d="M615.861,829.396c54.808-52.154,91.264-143.082,176.714-153.168
			c81.668-9.639,190.187,61.424,252.171-21.779c37.036-49.714,17.53-112.358-19.192-155.426
			c-30.539-35.808-73.552-55.648-115.224-75.219c-44.343-20.822-84.124-48.877-117.862-84.418
			c-25.987-27.378-77.139-103.354-122.967-77.722c-16.017,8.957-25.86,25.912-32.701,42.938
			c-14.603,36.353-18.963,76.237-34.271,112.296c-15.307,36.06-46.733,69.947-85.906,70.12
			c-31.207,0.14-58.037-20.672-82.765-39.711c-56.835-43.769-116.845-83.41-179.402-118.516
			c-34.747-19.496-73.629-38.161-112.845-31.119C83.566,308.099,12.538,382.664,18.391,443.168
			c2.33,24.086,13.652,46.5,27.727,66.183c35.893,50.194,90.059,85.917,121.901,138.769
			c46.354,76.941,40.199,181.459,101.304,247.291c55.623,59.926,125.042,44.549,195.62,22.414
			c52.935-16.596,103.518-46.07,145.769-83.684C612.448,832.591,614.166,831.011,615.861,829.396z"/>
	</g>
	
		<linearGradient id="SVGID_5_" gradientUnits="userSpaceOnUse" x1="613.0508" y1="180.9473" x2="736.7666" y2="180.9473" gradientTransform="matrix(0.962 -0.2731 0.2731 0.962 -164.291 177.8447)">
		<stop  offset="0" style="stop-color:#67308F"/>
		<stop  offset="1" style="stop-color:#29ABE2"/>
	</linearGradient>
	<path fill="url(#SVGID_5_)" d="M464.192,227.472c21.866,16.876,53.753,20.121,76.298,1.578
		c28.931-23.783,29.043-70.433,4.206-97.204c-53.634-57.82-135.381,17.792-95.374,79.557
		C453.342,217.609,458.418,223.017,464.192,227.472z"/>
	
		<linearGradient id="SVGID_6_" gradientUnits="userSpaceOnUse" x1="53.3027" y1="763.5752" x2="177.0151" y2="763.5752" gradientTransform="matrix(0.6636 -0.1884 0.2731 0.962 -58.2163 147.5732)">
		<stop  offset="0" style="stop-color:#67308F"/>
		<stop  offset="1" style="stop-color:#29ABE2"/>
	</linearGradient>
	<path opacity="0.8686" fill="url(#SVGID_6_)" d="M204.783,906.614c16.965,18.268,39.963,24.035,54.525,7.76
		c18.686-20.877,14.964-66.439-4.924-94.615c-42.949-60.852-95.07,6.35-61.511,69.947
		C196.245,896.097,200.303,901.79,204.783,906.614z"/>
	
		<linearGradient id="SVGID_7_" gradientUnits="userSpaceOnUse" x1="755" y1="379.1973" x2="870.92" y2="379.1973" gradientTransform="matrix(0.7938 -0.6082 0.6082 0.7938 -218.001 403.5083)">
		<stop  offset="0" style="stop-color:#67308F"/>
		<stop  offset="1" style="stop-color:#29ABE2"/>
	</linearGradient>
	<path fill="url(#SVGID_7_)" d="M614.521,271.684c14.018,5.632,29.315,2.634,35.115-10.418c7.438-16.75-3.741-41.247-21.489-51.637
		c-38.339-22.438-57.349,29.297-24.264,55.812C607.208,268.107,610.822,270.194,614.521,271.684z"/>
	
		<linearGradient id="SVGID_8_" gradientUnits="userSpaceOnUse" x1="832.3506" y1="725.46" x2="770.7393" y2="808.7186" gradientTransform="matrix(-1 0 0 -1 857.4512 1326.7832)">
		<stop  offset="0" style="stop-color:#67308F"/>
		<stop  offset="1" style="stop-color:#29ABE2"/>
	</linearGradient>
	<path fill="url(#SVGID_8_)" d="M25.06,604.482c9.995,8.834,24.191,11.024,33.86,2.139c12.402-11.398,11.627-34.757,0.142-48.603
		c-24.805-29.9-59.711,6.515-40.878,38.151C20.075,599.35,22.421,602.147,25.06,604.482z"/>
	
		<linearGradient id="SVGID_9_" gradientUnits="userSpaceOnUse" x1="896.9658" y1="456.5605" x2="942.8643" y2="456.5605" gradientTransform="matrix(0.962 -0.2731 0.2731 0.962 -164.291 177.8447)">
		<stop  offset="0" style="stop-color:#67308F"/>
		<stop  offset="1" style="stop-color:#29ABE2"/>
	</linearGradient>
	<path fill="url(#SVGID_9_)" d="M831.791,384.499c8.116,6.262,19.949,7.462,28.313,0.584c10.731-8.826,10.772-26.132,1.56-36.064
		c-19.897-21.452-50.232,6.603-35.382,29.517C827.766,380.837,829.652,382.846,831.791,384.499z"/>
	<linearGradient id="SVGID_10_" gradientUnits="userSpaceOnUse" x1="93.4312" y1="594.3633" x2="113.9849" y2="594.3633">
		<stop  offset="0" style="stop-color:#67308F"/>
		<stop  offset="1" style="stop-color:#29ABE2"/>
	</linearGradient>
	<path fill="none" stroke="url(#SVGID_10_)" stroke-miterlimit="10" d="M97.953,602.408c3.444,2.657,8.468,3.171,12.02,0.248
		c4.558-3.745,4.574-11.096,0.663-15.313c-8.45-9.109-21.328,2.803-15.027,12.534C96.244,600.854,97.042,601.709,97.953,602.408z"/>
	<linearGradient id="SVGID_11_" gradientUnits="userSpaceOnUse" x1="2.2388" y1="457.8252" x2="52.9385" y2="457.8252">
		<stop  offset="0" style="stop-color:#67308F"/>
		<stop  offset="1" style="stop-color:#29ABE2"/>
	</linearGradient>
	<path fill="none" stroke="url(#SVGID_11_)" stroke-miterlimit="10" d="M13.009,478.312c8.772,6.739,21.543,8.004,30.552,0.556
		c11.557-9.554,11.557-28.233,1.585-38.926c-21.532-23.096-54.189,7.261-38.107,31.955C8.655,474.376,10.693,476.533,13.009,478.312
		z"/>
	<linearGradient id="SVGID_12_" gradientUnits="userSpaceOnUse" x1="838.4336" y1="715.6914" x2="858.9844" y2="715.6914">
		<stop  offset="0" style="stop-color:#67308F"/>
		<stop  offset="1" style="stop-color:#29ABE2"/>
	</linearGradient>
	<path fill="none" stroke="url(#SVGID_12_)" stroke-miterlimit="10" d="M842.951,723.735c3.446,2.662,8.471,3.172,12.021,0.252
		c4.558-3.75,4.575-11.1,0.663-15.316c-8.447-9.105-21.327,2.807-15.022,12.533C841.242,722.185,842.046,723.036,842.951,723.735z"
		/>
	<linearGradient id="SVGID_13_" gradientUnits="userSpaceOnUse" x1="627.2363" y1="149.3994" x2="660.2051" y2="149.3994">
		<stop  offset="0" style="stop-color:#67308F"/>
		<stop  offset="1" style="stop-color:#29ABE2"/>
	</linearGradient>
	<path fill="none" stroke="url(#SVGID_13_)" stroke-miterlimit="10" d="M634.312,162.554c5.631,4.347,13.846,5.184,19.653,0.411
		c7.448-6.131,7.477-18.146,1.079-25.043c-13.813-14.892-34.872,4.585-24.563,20.495
		C631.519,160.014,632.826,161.41,634.312,162.554z"/>
	<linearGradient id="SVGID_14_" gradientUnits="userSpaceOnUse" x1="464.8125" y1="958.5313" x2="485.3662" y2="958.5313">
		<stop  offset="0" style="stop-color:#67308F"/>
		<stop  offset="1" style="stop-color:#29ABE2"/>
	</linearGradient>
	<path fill="none" stroke="url(#SVGID_14_)" stroke-miterlimit="10" d="M469.334,966.577c3.444,2.656,8.469,3.17,12.02,0.248
		c4.557-3.746,4.574-11.096,0.663-15.313c-8.449-9.109-21.329,2.803-15.027,12.533C467.625,965.022,468.423,965.876,469.334,966.577
		z"/>
	<linearGradient id="SVGID_15_" gradientUnits="userSpaceOnUse" x1="908.8584" y1="275.8857" x2="929.4121" y2="275.8857">
		<stop  offset="0" style="stop-color:#67308F"/>
		<stop  offset="1" style="stop-color:#29ABE2"/>
	</linearGradient>
	<path fill="none" stroke="url(#SVGID_15_)" stroke-miterlimit="10" d="M913.379,283.933c3.446,2.657,8.472,3.17,12.021,0.248
		c4.558-3.746,4.576-11.096,0.662-15.317c-8.446-9.106-21.325,2.806-15.026,12.538C911.67,282.378,912.474,283.228,913.379,283.933z
		"/>
	
		<linearGradient id="SVGID_16_" gradientUnits="userSpaceOnUse" x1="720.6875" y1="521.7563" x2="1069.6025" y2="521.7563" gradientTransform="matrix(-0.9336 0.3584 -0.3584 -0.9336 1440.541 626.3467)">
		<stop  offset="0" style="stop-color:#67308F"/>
		<stop  offset="1" style="stop-color:#29ABE2"/>
	</linearGradient>
	<path opacity="0.5013" fill="url(#SVGID_16_)" d="M507.737,309.443c-65.7-41.859-156.09-42.896-214.725,14.896
		c-75.229,74.145-63.727,205.208,12.816,274.124C471.132,747.29,681.604,514.18,553.572,350.816
		C540.71,334.398,525.085,320.501,507.737,309.443z"/>
</g>
</svg>
